name analog
datacolumns 19
datarows 55
range 0.203 0.23
endheader
time	ground_force_vx	ground_force_vy	ground_force_vz	ground_force_px	ground_force_py	ground_force_pz	l_ground_force_vx	l_ground_force_vy	l_ground_force_vz	l_ground_force_px	l_ground_force_py	l_ground_force_pz	ground_torque_x	ground_torque_y	ground_torque_z	l_ground_torque_x	l_ground_torque_y	l_ground_torque_z
0.203	-0.0	-0.0	-0.0	0.5012853145599365	35.32958984375	-354.53106689453125	-0.3535038232803345	-39.74475860595703	-408.16351318359375	-0.0	-0.0	-0.0	-0.0	-0.0	-0.0	118401.7265625	-5429.546875	-1493.1007080078125
0.20350000000000001	-0.0	-0.0	-0.0	1.1750119924545288	34.923858642578125	-355.5663146972656	-0.602893054485321	-39.76276397705078	-407.951416015625	-0.0	-0.0	-0.0	-0.0	-0.0	-0.0	118507.90625	-5060.7314453125	-1576.676025390625
0.20400000000000001	-0.0	-0.0	-0.0	1.2304139137268066	34.987762451171875	-354.3725280761719	-0.3205273151397705	-39.76280975341797	-408.15826416015625	-0.0	-0.0	-0.0	-0.0	-0.0	-0.0	118427.1640625	-4731.7333984375	-1641.849853515625
0.20450000000000002	-0.0	-0.0	-0.0	1.4273681640625	35.03194808959961	-353.165283203125	-0.8871078491210938	-39.83089828491211	-406.20648193359375	-0.0	-0.0	-0.0	-0.0	-0.0	-0.0	118021.3828125	-4809.93798828125	-1690.1727294921875
0.20500000000000002	-0.0	-0.0	-0.0	1.5725454092025757	34.404335021972656	-351.4301452636719	-0.9210587739944458	-39.99409484863281	-406.7716979980469	-0.0	-0.0	-0.0	-0.0	-0.0	-0.0	117885.203125	-4531.2470703125	-1748.784423828125
0.20550000000000002	-0.0	-0.0	-0.0	1.798553705215454	34.28217315673828	-350.502685546875	-0.746314525604248	-39.726524353027344	-405.3875732421875	-0.0	-0.0	-0.0	-0.0	-0.0	-0.0	117805.4921875	-4325.2353515625	-1814.0035400390625
0.20600000000000002	-0.0	-0.0	-0.0	2.0049479007720947	33.68198776245117	-350.29888916015625	-0.8016191720962524	-39.63813400268555	-404.3899536132813	-0.0	-0.0	-0.0	-0.0	-0.0	-0.0	117428.96875	-4374.75732421875	-1862.105224609375
0.20650000000000002	-0.0	-0.0	-0.0	2.9904944896698	33.82693099975586	-350.2601928710937	-1.2937902212142944	-39.55321502685547	-404.0273132324219	-0.0	-0.0	-0.0	-0.0	-0.0	-0.0	116618.1328125	-4181.4970703125	-1974.9580078125
0.20700000000000002	-0.0	-0.0	-0.0	2.925046682357788	33.30229187011719	-350.33355712890625	-1.5080833435058594	-38.82846832275391	-401.87353515625	-0.0	-0.0	-0.0	-0.0	-0.0	-0.0	116155.6953125	-3832.810791015625	-2062.677490234375
0.20750000000000002	-0.0	-0.0	-0.0	3.4089725017547607	33.23233413696289	-348.3408508300781	-2.1992006301879883	-39.1080207824707	-399.429443359375	-0.0	-0.0	-0.0	-0.0	-0.0	-0.0	115495.5859375	-3605.1875	-2390.830078125
0.20800000000000002	-0.0	-0.0	-0.0	3.1223678588867188	32.76197814941406	-347.1759033203125	-2.591230630874634	-38.80593490600586	-397.7397155761719	-0.0	-0.0	-0.0	-0.0	-0.0	-0.0	114845.2890625	-3171.349853515625	-2509.70458984375
0.2085	-0.0	-0.0	-0.0	3.1032960414886475	32.704715728759766	-344.62811279296875	-3.104877471923828	-38.57799530029297	-395.1109008789063	-0.0	-0.0	-0.0	-0.0	-0.0	-0.0	114393.1875	-3316.732177734375	-2797.277587890625
0.209	-0.0	-0.0	-0.0	2.415196418762207	31.953445434570312	-342.0798034667969	-4.085683345794678	-39.01456451416016	-392.7955932617188	-0.0	-0.0	-0.0	-0.0	-0.0	-0.0	113495.2109375	-3047.051025390625	-3099.138916015625
0.2095	-0.0	-0.0	-0.0	1.9502440690994265	32.31596374511719	-342.5085144042969	-4.916694164276123	-38.43865585327149	-390.3306884765625	-0.0	-0.0	-0.0	-0.0	-0.0	-0.0	112547.6875	-2977.32373046875	-3276.304443359375
0.21	-0.0	-0.0	-0.0	1.4973000288009644	31.915861129760746	-340.9713134765625	-5.569906711578369	-38.10422897338867	-387.2091674804688	-0.0	-0.0	-0.0	-0.0	-0.0	-0.0	112008.796875	-2910.3154296875	-3425.00439453125
0.2105	-0.0	-0.0	-0.0	0.71368408203125	31.73042297363281	-338.3758239746094	-5.747279167175293	-38.10432815551758	-384.8395690917969	-0.0	-0.0	-0.0	-0.0	-0.0	-0.0	111110.9609375	-3174.426513671875	-3336.138427734375
0.211	-0.0	-0.0	-0.0	1.3498111963272097	31.939699172973636	-336.0276794433594	-5.183191299438477	-37.92162704467773	-381.2735595703125	-0.0	-0.0	-0.0	-0.0	-0.0	-0.0	110711.7265625	-3264.51318359375	-3365.354736328125
0.2115	-0.0	-0.0	-0.0	0.4427904486656189	31.6915340423584	-334.4293212890625	-5.056514739990234	-37.80168151855469	-379.0545043945313	-0.0	-0.0	-0.0	-0.0	-0.0	-0.0	110019.65625	-3677.542236328125	-3155.390380859375
0.212	-0.0	-0.0	-0.0	1.349323034286499	31.652448654174805	-331.28277587890625	-4.454643249511719	-37.11412811279297	-378.8027038574219	-0.0	-0.0	-0.0	-0.0	-0.0	-0.0	109505.078125	-4105.81884765625	-3051.103759765625
0.2125	-0.0	-0.0	-0.0	1.8233312368392944	31.29335594177246	-330.1117858886719	-4.030291557312012	-37.422306060791016	-376.262451171875	-0.0	-0.0	-0.0	-0.0	-0.0	-0.0	109034.8671875	-4444.591796875	-2896.18798828125
0.213	-0.0	-0.0	-0.0	2.299839973449707	31.067277908325195	-326.2182922363281	-3.756886959075928	-37.23346710205078	-374.4710693359375	-0.0	-0.0	-0.0	-0.0	-0.0	-0.0	108862.5546875	-4632.5869140625	-2705.1279296875
0.2135	-0.0	-0.0	-0.0	3.400431632995605	30.333267211914062	-323.9026794433594	-3.4790070056915283	-37.202632904052734	-373.7895812988281	-0.0	-0.0	-0.0	-0.0	-0.0	-0.0	108294.875	-5004.1298828125	-2675.238037109375
0.214	-0.0	-0.0	-0.0	4.272478103637695	30.017194747924805	-322.29473876953125	-3.4709959030151367	-37.30225372314453	-371.3767700195313	-0.0	-0.0	-0.0	-0.0	-0.0	-0.0	108160.6640625	-5333.1015625	-2704.897705078125
0.2145	-0.0	-0.0	-0.0	4.876887321472168	30.007280349731445	-318.4111328125	-3.9143528938293457	-36.89914321899414	-370.8753967285156	-0.0	-0.0	-0.0	-0.0	-0.0	-0.0	107593.25	-5486.81640625	-2804.280517578125
0.215	-0.0	-0.0	-0.0	5.352630615234375	29.680423736572266	-316.3321533203125	-4.158571720123291	-37.18343353271485	-368.3123168945313	-0.0	-0.0	-0.0	-0.0	-0.0	-0.0	107615.3984375	-5920.984375	-2763.911376953125
0.2155	-0.0	-0.0	-0.0	5.739967346191406	29.334436416625977	-315.82183837890625	-4.158861637115479	-36.90951156616211	-367.1121826171875	-0.0	-0.0	-0.0	-0.0	-0.0	-0.0	107262.609375	-5953.943359375	-2774.61474609375
0.216	-0.0	-0.0	-0.0	6.521575927734375	29.363866806030277	-312.56427001953125	-4.474720478057861	-36.78083038330078	-367.6973876953125	-0.0	-0.0	-0.0	-0.0	-0.0	-0.0	106917.9453125	-6184.31689453125	-2866.823486328125
0.2165	-0.0	-0.0	-0.0	6.284834861755371	30.0970401763916	-310.6833190917969	-4.268270492553711	-36.2314453125	-366.4945983886719	-0.0	-0.0	-0.0	-0.0	-0.0	-0.0	106505.1875	-6347.81982421875	-2777.5615234375
0.217	-0.0	-0.0	-0.0	5.58001708984375	30.31304931640625	-309.032470703125	-4.563673973083496	-36.45723342895508	-365.1737976074219	-0.0	-0.0	-0.0	-0.0	-0.0	-0.0	106406.703125	-6629.64111328125	-2771.26171875
0.2175	-0.0	-0.0	-0.0	4.293812274932861	30.243839263916016	-309.4991149902344	-4.277890682220459	-36.81045913696289	-364.4764404296875	-0.0	-0.0	-0.0	-0.0	-0.0	-0.0	106484.4609375	-7111.67333984375	-2757.92431640625
0.218	-0.0	-0.0	-0.0	2.578920364379883	30.25568199157715	-306.3196105957031	-4.1390461921691895	-36.87894821166992	-364.2432556152344	-0.0	-0.0	-0.0	-0.0	-0.0	-0.0	106524.6171875	-7246.37939453125	-2616.1103515625
0.2185	-0.0	-0.0	-0.0	1.5774965286254885	30.25578117370605	-302.8676147460937	-4.089828968048096	-36.95808029174805	-364.8993835449219	-0.0	-0.0	-0.0	-0.0	-0.0	-0.0	106478.2109375	-7372.9140625	-2602.77392578125
0.219	-0.0	-0.0	-0.0	0.0048810839653015	30.92824935913086	-299.9803771972656	-4.129496574401856	-36.94718551635742	-364.12158203125	-0.0	-0.0	-0.0	-0.0	-0.0	-0.0	106117.28125	-7722.9921875	-2636.102783203125
0.2195	-0.0	-0.0	-0.0	-0.9199963808059692	31.42218971252441	-299.0329895019531	-4.080696105957031	-37.90138244628906	-363.46685791015625	-0.0	-0.0	-0.0	-0.0	-0.0	-0.0	106229.078125	-7560.5966796875	-2734.923828125
0.22	-0.0	-0.0	-0.0	-1.983120322227478	32.01231384277344	-298.031494140625	-4.278194427490234	-37.90162658691406	-362.1951904296875	-0.0	-0.0	-0.0	-0.0	-0.0	-0.0	106174.7421875	-7654.296875	-2745.664306640625
0.2205	-0.0	-0.0	-0.0	-2.435648202896118	32.038856506347656	-297.1615295410156	-4.524250030517578	-38.439971923828125	-362.7685546875	-0.0	-0.0	-0.0	-0.0	-0.0	-0.0	105892.3671875	-8241.53515625	-2879.67822265625
0.221	-0.0	-0.0	-0.0	-3.047003746032715	32.84825134277344	-295.3119812011719	-4.524250030517578	-39.07406234741211	-361.7210693359375	-0.0	-0.0	-0.0	-0.0	-0.0	-0.0	105719.703125	-8262.671875	-2966.038330078125
0.2215	-0.0	-0.0	-0.0	-2.8275434970855717	34.00650405883789	-293.8199157714844	-4.585026741027832	-38.95750427246094	-361.56158447265625	-0.0	-0.0	-0.0	-0.0	-0.0	-0.0	105398.0859375	-8234.3505859375	-2933.78076171875
0.222	-0.0	-0.0	-0.0	-3.636885404586792	35.08837127685547	-296.2358703613281	-4.524250030517578	-39.15410232543945	-360.5645446777344	-0.0	-0.0	-0.0	-0.0	-0.0	-0.0	105672.3125	-8400.869140625	-2988.8349609375
0.2225	-0.0	-0.0	-0.0	-3.5060365200042725	35.43234634399414	-296.0710144042969	-4.354017734527588	-38.881832122802734	-359.7063903808594	-0.0	-0.0	-0.0	-0.0	-0.0	-0.0	105347.0859375	-8704.6474609375	-2810.611328125
0.223	-0.0	-0.0	-0.0	-3.3425004482269287	36.09781646728516	-298.2489929199219	-3.166201114654541	-39.27588272094727	-360.5127258300781	-0.0	-0.0	-0.0	-0.0	-0.0	-0.0	105531.765625	-9001.81640625	-2796.135009765625
0.2235	-0.0	-0.0	-0.0	-3.059581995010376	36.00868225097656	-298.0010070800781	-2.879772424697876	-39.37104797363281	-360.61907958984375	-0.0	-0.0	-0.0	-0.0	-0.0	-0.0	105379.84375	-9026.1650390625	-2620.258056640625
0.224	-0.0	-0.0	-0.0	-2.293196201324463	36.24982070922852	-298.998291015625	-2.333503484725952	-39.79214096069336	-359.19610595703125	-0.0	-0.0	-0.0	-0.0	-0.0	-0.0	105086.671875	-9380.7939453125	-2624.362548828125
0.2245	-0.0	-0.0	-0.0	-1.7631711959838867	36.25505447387695	-298.16717529296875	-1.9310139417648315	-39.1881103515625	-359.19586181640625	-0.0	-0.0	-0.0	-0.0	-0.0	-0.0	104865.671875	-9291.9716796875	-2503.1064453125
0.225	-0.0	-0.0	-0.0	-1.2489471435546875	36.08829879760742	-296.671142578125	-1.7268965244293213	-39.01758193969727	-355.9017639160156	-0.0	-0.0	-0.0	-0.0	-0.0	-0.0	104413.7109375	-9593.8232421875	-2530.599853515625
0.2255	-0.0	-0.0	-0.0	-1.1974924802780151	36.36977005004883	-293.7077331542969	-1.685504913330078	-38.90285110473633	-357.18212890625	-0.0	-0.0	-0.0	-0.0	-0.0	-0.0	104122.1953125	-9422.619140625	-2548.313720703125
0.226	-0.0	-0.0	-0.0	-1.4061342477798462	36.6580810546875	-294.7371520996094	-1.575976848602295	-38.54429244995117	-354.2855529785156	-0.0	-0.0	-0.0	-0.0	-0.0	-0.0	103521.578125	-9520.181640625	-2694.5966796875
0.2265	-0.0	-0.0	-0.0	-1.6483551263809204	36.34394073486328	-294.6363220214844	-1.41937255859375	-38.466705322265625	-351.57501220703125	-0.0	-0.0	-0.0	-0.0	-0.0	-0.0	103006.6640625	-9368.595703125	-2649.125
0.227	-0.0	-0.0	-0.0	-2.0343313217163086	36.38652801513672	-297.9300537109375	-1.6805016994476318	-38.466583251953125	-351.8624572753906	-0.0	-0.0	-0.0	-0.0	-0.0	-0.0	102373.96875	-9485.6240234375	-2851.7158203125
0.2275	-0.0	-0.0	-0.0	-1.9447563886642456	36.38660430908203	-296.671142578125	-1.8629264831542969	-38.10846328735352	-349.7487487792969	-0.0	-0.0	-0.0	-0.0	-0.0	-0.0	102022.75	-9646.3154296875	-2874.37255859375
0.228	-0.0	-0.0	-0.0	-1.4488345384597778	36.42954635620117	-296.41619873046875	-1.99825131893158	-38.352569580078125	-346.8732604980469	-0.0	-0.0	-0.0	-0.0	-0.0	-0.0	101855.2890625	-9678.978515625	-3008.7412109375
0.2285	-0.0	-0.0	-0.0	-1.6241565942764282	36.07317352294922	-297.3899841308594	-1.6222130060195925	-38.35261917114258	-347.8380432128906	-0.0	-0.0	-0.0	-0.0	-0.0	-0.0	101591.90625	-9746.615234375	-2991.408935546875
0.229	-0.0	-0.0	-0.0	-1.1410049200057983	35.87070846557617	-298.4596862792969	-1.6603033542633057	-38.41592025756836	-346.6916809082031	-0.0	-0.0	-0.0	-0.0	-0.0	-0.0	101547.328125	-9438.8876953125	-3192.06982421875
0.2295	-0.0	-0.0	-0.0	-0.6487352252006531	35.94379425048828	-297.4632263183594	-1.486852765083313	-38.86154174804688	-347.572998046875	-0.0	-0.0	-0.0	-0.0	-0.0	-0.0	101239.5546875	-9650.5224609375	-3199.17919921875
0.23	-0.0	-0.0	-0.0	-0.71368408203125	35.72190856933594	-297.09197998046875	-0.9971216917037964	-38.48356628417969	-347.322021484375	-0.0	-0.0	-0.0	-0.0	-0.0	-0.0	101384.875	-9811.9921875	-3116.914794921875
